<?xml version="1.0" encoding="iso-8859-1"?>
<!-- Generator: Adobe Illustrator 19.0.0, SVG Export Plug-In . SVG Version: 6.00 Build 0)  -->
<svg version="1.1" id="Capa_1" xmlns="http://www.w3.org/2000/svg" xmlns:xlink="http://www.w3.org/1999/xlink" x="0px" y="0px"
	 viewBox="0 0 512 512" style="enable-background:new 0 0 512 512;" xml:space="preserve">
<g>
	
		<rect x="102.767" y="157.852" transform="matrix(-0.9973 0.0729 -0.0729 -0.9973 248.8139 478.7802)" style="fill:#F49D18;" width="25.805" height="172.157"/>
	<polygon style="fill:#F49D18;" points="103.019,70.825 52.109,96.108 56.934,120.287 107.896,137.591 155.801,113.064 
		157.062,88.442 	"/>
</g>
<polygon style="fill:#DB8D15;" points="77.538,109.898 77.538,109.898 73.303,85.582 52.109,96.108 53.312,102.138 56.934,120.287 
	80.757,128.376 "/>
<g>
	<path style="fill:#FBBF0D;" d="M150.496,45.792l-98.089,7.166c-4.666,0.341-7.977,4.692-7.061,9.28l6.762,33.87l104.955-7.668
		l1.768-34.494C159.07,49.275,155.162,45.451,150.496,45.792z"/>
	<path style="fill:#FBBF0D;" d="M155.801,113.064l-1.795,34.98c-0.584,11.481-5.404,21.839-12.944,29.541
		c-7.532,7.702-17.791,12.746-29.257,13.584c-22.924,1.675-43.511-13.996-48.013-36.535l-6.859-34.347L155.801,113.064z"/>
</g>
<g>
	<path style="fill:#E0AB0A;" d="M113.763,190.981c0.42-0.049,0.838-0.11,1.255-0.172c0.198-0.029,0.397-0.055,0.594-0.085
		c0.542-0.087,1.081-0.183,1.616-0.288c0.053-0.01,0.104-0.02,0.157-0.03c0.585-0.117,1.167-0.244,1.745-0.383
		c-17.189-4.414-31.126-20.05-34.733-40.751l-5.33-30.601l-22.131,1.616l0,0l0,0l6.859,34.347
		c3.922,19.637,20.057,34.056,39.306,36.337c1.464,0.173,2.944,0.281,4.44,0.311c1.411,0.029,2.834-0.008,4.267-0.113
		C112.463,191.121,113.115,191.056,113.763,190.981z"/>
	<path style="fill:#E0AB0A;" d="M45.223,61.353c0.025,0.294,0.065,0.588,0.124,0.885l6.762,33.87l22.739-1.662l-2.136-12.264
		L67.431,51.86l-4.212,0.308l-10.812,0.79c-0.875,0.064-1.702,0.269-2.462,0.59c-0.253,0.107-0.5,0.227-0.738,0.359
		C46.596,55.353,44.961,58.241,45.223,61.353z"/>
</g>
<path style="fill:#44C2A7;" d="M382.635,326.026l45.153-20.345c13.922-6.273,30.297-0.072,36.57,13.851
	c6.274,13.924,0.072,30.298-13.851,36.57l-48.647,21.919L382.635,326.026z"/>
<path style="fill:#1F967E;" d="M450.507,335.499l-48.647,21.919l-12.695-34.335l-6.53,2.942l19.224,51.996l48.647-21.919
	c13.574-6.115,19.803-21.828,14.295-35.516C462.234,326.986,457.29,332.442,450.507,335.499z"/>
<path style="fill:#44C2A7;" d="M174.918,326.026l-45.153-20.345c-13.922-6.273-30.297-0.072-36.57,13.851
	c-6.274,13.924-0.072,30.298,13.851,36.57l48.647,21.919L174.918,326.026z"/>
<path style="fill:#1F967E;" d="M155.694,357.418l-48.648-21.919c-6.783-3.056-11.727-8.512-14.295-14.912
	c-5.508,13.686,0.721,29.4,14.295,35.516l48.647,21.919l19.224-51.996l-6.53-2.942L155.694,357.418z"/>
<circle style="fill:#EEEEEC;" cx="278.777" cy="374.048" r="137.952"/>
<path style="fill:#D4D3D3;" d="M182.03,374.045c0-69.188,50.934-126.475,117.351-136.422c-6.722-1.006-13.601-1.533-20.604-1.533
	c-76.19,0-137.955,61.764-137.955,137.955c0,76.19,61.763,137.955,137.955,137.955c7.002,0,13.882-0.525,20.604-1.533
	C232.964,500.52,182.03,443.233,182.03,374.045z"/>
<path style="fill:#D13834;" d="M404.881,275.038l-36.414-36.202l-39.713,39.946l36.413,36.202c3.497,3.477,9.15,3.46,12.627-0.037
	l27.124-27.282C408.395,284.167,408.378,278.514,404.881,275.038z"/>
<path style="fill:#E95552;" d="M360.294,192.247c30.945,26.797,37.075,111.132-81.517,111.132s-112.462-84.335-81.517-111.132
	L360.294,192.247L360.294,192.247z"/>
<path style="fill:#D13834;" d="M228.164,192.247h-30.905c-24.16,20.922-33.191,76.913,20.446,100.462
	C201.055,257.55,210.612,212.542,228.164,192.247z"/>
<circle style="fill:#EEEEEC;" cx="278.777" cy="166.024" r="85.618"/>
<path style="fill:#D4D3D3;" d="M213.767,155.457c0-23.952,7.795-45.855,20.688-62.692c-24.751,15.007-41.292,42.201-41.292,73.26
	c0,47.283,38.331,85.614,85.614,85.614c3.565,0,7.072-0.244,10.523-0.667C246.768,245.367,213.767,204.745,213.767,155.457z"/>
<g>
	<circle style="fill:#424342;" cx="278.777" cy="342.37" r="15.83"/>
	<circle style="fill:#424342;" cx="278.777" cy="396.692" r="15.83"/>
	<circle style="fill:#424342;" cx="278.777" cy="451.023" r="15.83"/>
</g>
<circle style="fill:#E95552;" cx="278.777" cy="166.024" r="18.258"/>
<g>
	<path style="fill:#424342;" d="M278.777,222.706c-12.766,0-24.314-5.634-30.892-15.071c-2.441-3.501-1.581-8.317,1.919-10.756
		c3.501-2.441,8.317-1.581,10.756,1.919c3.636,5.216,10.616,8.455,18.217,8.455c7.599,0,14.578-3.239,18.215-8.453
		c2.44-3.501,7.257-4.359,10.757-1.918c3.5,2.442,4.359,7.257,1.918,10.757C303.087,217.073,291.54,222.706,278.777,222.706z"/>
	<circle style="fill:#424342;" cx="239.744" cy="146.502" r="10.754"/>
	<circle style="fill:#424342;" cx="317.811" cy="146.502" r="10.754"/>
</g>
<path style="fill:#E95552;" d="M210.564,80.412c0-52.202,126.304-117.748,185.023-54.25V43.23
	c-40.283-8.876-48.596,37.181-48.596,37.181L278.775,97.35L210.564,80.412z"/>
<circle style="fill:#EEEEEC;" cx="395.589" cy="35.376" r="23.9"/>
<path style="fill:#D4D3D3;" d="M405.888,48.974c-13.198,0-23.897-10.698-23.897-23.897c0-3.945,0.961-7.662,2.654-10.941
	c-7.692,3.97-12.956,11.989-12.956,21.242c0,13.198,10.698,23.897,23.897,23.897c9.253,0,17.273-5.263,21.242-12.956
	C413.551,48.011,409.833,48.974,405.888,48.974z"/>
<rect x="210.569" y="80.416" style="fill:#44C2A7;" width="136.427" height="33.877"/>
<rect x="210.569" y="80.416" style="fill:#1F967E;" width="20.604" height="33.877"/>
<g>
</g>
<g>
</g>
<g>
</g>
<g>
</g>
<g>
</g>
<g>
</g>
<g>
</g>
<g>
</g>
<g>
</g>
<g>
</g>
<g>
</g>
<g>
</g>
<g>
</g>
<g>
</g>
<g>
</g>
</svg>
